0
SECTION
2
HEADER
9
$INSUNITS
70
4
9
$ACADVER
1
AC1014
9
$HANDSEED
5
FFFF
0
ENDSEC
0
SECTION
2
TABLES
0
TABLE
2
VPORT
5
8
100
AcDbSymbolTable
0
ENDTAB
0
TABLE
2
LTYPE
5
5
100
AcDbSymbolTable
0
LTYPE
5
14
100
AcDbSymbolTableRecord
100
AcDbLinetypeTableRecord
2
BYBLOCK
70
0
0
LTYPE
5
15
100
AcDbSymbolTableRecord
100
AcDbLinetypeTableRecord
2
BYLAYER
70
0
0
LTYPE
5
16
100
AcDbSymbolTableRecord
100
AcDbLinetypeTableRecord
2
DASHED
70
0
3
Dashed __ __ __ __ __ __ __ __ __ __ __ __ __ _
72
65
73
2
40
0.75
49
0.5
74
0
49
-0.25
74
0
0
ENDTAB
0
TABLE
2
LAYER
5
2
100
AcDbSymbolTable
70
2
0
LAYER
5
50
100
AcDbSymbolTableRecord
100
AcDbLayerTableRecord
2
0
70
0
62
7
6
CONTINUOUS
0
ENDTAB
0
TABLE
2
STYLE
5
3
100
AcDbSymbolTable
70
1
0
STYLE
5
11
100
AcDbSymbolTableRecord
100
AcDbTextStyleTableRecord
2
STANDARD
70
0
0
ENDTAB
0
TABLE
2
VIEW
5
6
100
AcDbSymbolTable
70
0
0
ENDTAB
0
TABLE
2
UCS
5
7
100
AcDbSymbolTable
70
0
0
ENDTAB
0
TABLE
2
APPID
5
9
100
AcDbSymbolTable
70
2
0
APPID
5
12
100
AcDbSymbolTableRecord
100
AcDbRegAppTableRecord
2
ACAD
70
0
0
ENDTAB
0
TABLE
2
DIMSTYLE
5
A
100
AcDbSymbolTable
70
1
0
ENDTAB
0
TABLE
2
BLOCK_RECORD
5
1
100
AcDbSymbolTable
70
1
0
BLOCK_RECORD
5
1F
100
AcDbSymbolTableRecord
100
AcDbBlockTableRecord
2
*MODEL_SPACE
0
BLOCK_RECORD
5
1B
100
AcDbSymbolTableRecord
100
AcDbBlockTableRecord
2
*PAPER_SPACE
0
ENDTAB
0
ENDSEC
0
SECTION
2
BLOCKS
0
BLOCK
5
20
100
AcDbEntity
100
AcDbBlockBegin
2
*MODEL_SPACE
0
ENDBLK
5
21
100
AcDbEntity
100
AcDbBlockEnd
0
BLOCK
5
1C
100
AcDbEntity
100
AcDbBlockBegin
2
*PAPER_SPACE
0
ENDBLK
5
1D
100
AcDbEntity
100
AcDbBlockEnd
0
ENDSEC
0
SECTION
2
ENTITIES
0
LINE
5
106
100
AcDbEntity
8
0
100
AcDbLine
10
-1.6481682747898498
20
-10.000000177788554
30
0
11
-1.6481682322151125
21
-8.0000001816683515
31
0
0
LINE
5
107
100
AcDbEntity
8
0
100
AcDbLine
10
-1.6481682322151125
20
-8.0000001816683515
30
0
11
-3.1111472364987369
21
-8.0000001193824044
31
0
0
LINE
5
108
100
AcDbEntity
8
0
100
AcDbLine
10
-3.1111472364987369
20
-8.0000001193824044
30
0
11
-3.1111471939239985
21
-6.0000000894069565
31
0
0
LINE
5
109
100
AcDbEntity
8
0
100
AcDbLine
10
-3.1111471939239985
20
-6.0000000894069565
30
0
11
1.5985476831126277e-14
21
-6.0000000894069547
31
0
0
LINE
5
110
100
AcDbEntity
8
0
100
AcDbLine
10
3.1111472364938142
20
-8.0000001176896429
30
0
11
3.1111471939190762
21
-6.0000000894069547
31
0
0
LINE
5
111
100
AcDbEntity
8
0
100
AcDbLine
10
3.1111471939190762
20
-6.0000000894069547
30
0
11
1.598894675453409e-14
21
-6.0000000894069538
31
0
0
LINE
5
112
100
AcDbEntity
8
0
100
AcDbLine
10
1.6481682322151552
20
-8.0000001816683426
30
0
11
3.1111472364938142
21
-8.0000001176896429
31
0
0
LINE
5
113
100
AcDbEntity
8
0
100
AcDbLine
10
1.6481682747899031
20
-10.000000177788532
30
0
11
1.6481682322151552
21
-8.0000001816683426
31
0
0
LINE
5
114
100
AcDbEntity
8
0
100
AcDbLine
10
8.0000001816683515
20
-1.6481682322151134
30
0
11
8.0000001193825874
21
-3.1111472364987387
31
0
0
LINE
5
115
100
AcDbEntity
8
0
100
AcDbLine
10
8.0000001193825874
20
-3.1111472364987387
30
0
11
6.0000000894092835
21
-3.1111471939239999
31
0
0
LINE
5
116
100
AcDbEntity
8
0
100
AcDbLine
10
6.0000000894092835
20
-3.1111471939239999
30
0
11
6.0000000894069565
21
1.7317744480528803e-14
31
0
0
LINE
5
117
100
AcDbEntity
8
0
100
AcDbLine
10
10.000000177788557
20
-1.6481683386519865
30
0
11
8.0000001816683515
21
-1.6481682322151134
31
0
0
LINE
5
118
100
AcDbEntity
8
0
100
AcDbLine
10
10.000000247958877
20
1.6481682397047359
30
0
11
8.0000001816683426
21
1.6481682322151605
31
0
0
LINE
5
119
100
AcDbEntity
8
0
100
AcDbLine
10
8.0000001816683426
20
1.6481682322151605
30
0
11
8.000000117689595
21
3.1111472364996642
31
0
0
LINE
5
120
100
AcDbEntity
8
0
100
AcDbLine
10
8.000000117689595
20
3.1111472364996642
30
0
11
6.000000089426508
21
3.1111471939132951
31
0
0
LINE
5
121
100
AcDbEntity
8
0
100
AcDbLine
10
6.000000089426508
20
3.1111471939132951
30
0
11
6.0000000894069547
21
1.7321214403936613e-14
31
0
0
LINE
5
122
100
AcDbEntity
8
0
100
AcDbLine
10
1.648168232215113
20
8.0000001816683479
30
0
11
3.1111472364987391
21
8.0000001193825874
31
0
0
LINE
5
123
100
AcDbEntity
8
0
100
AcDbLine
10
3.1111472364987391
20
8.0000001193825874
30
0
11
3.1111471939240016
21
6.0000000894067549
31
0
0
LINE
5
124
100
AcDbEntity
8
0
100
AcDbLine
10
3.1111471939240016
20
6.0000000894067549
30
0
11
-1.5250688740688673e-14
21
6.0000000894069547
31
0
0
LINE
5
125
100
AcDbEntity
8
0
100
AcDbLine
10
1.6481684025141241
20
10.000000177788561
30
0
11
1.648168232215113
21
8.0000001816683479
31
0
0
LINE
5
126
100
AcDbEntity
8
0
100
AcDbLine
10
-1.6481682046195676
20
10.000000177788547
30
0
11
-1.6481682322151612
21
8.0000001816683444
31
0
0
LINE
5
127
100
AcDbEntity
8
0
100
AcDbLine
10
-1.6481682322151612
20
8.0000001816683444
30
0
11
-3.1111472365033155
21
8.0000001176911599
31
0
0
LINE
5
128
100
AcDbEntity
8
0
100
AcDbLine
10
-3.1111472365033155
20
8.0000001176911599
30
0
11
-3.1111471939093729
21
6.0000000894163605
31
0
0
LINE
5
129
100
AcDbEntity
8
0
100
AcDbLine
10
-3.1111471939093729
20
6.0000000894163605
30
0
11
-1.5254158664096486e-14
21
6.0000000894069538
31
0
0
LINE
5
130
100
AcDbEntity
8
0
100
AcDbLine
10
-8.0000001816683479
20
1.6481682322151137
30
0
11
-8.0000001193825856
21
3.1111472364987391
31
0
0
LINE
5
131
100
AcDbEntity
8
0
100
AcDbLine
10
-8.0000001193825856
20
3.1111472364987391
30
0
11
-6.0000000894092835
21
3.1111471939239999
31
0
0
LINE
5
132
100
AcDbEntity
8
0
100
AcDbLine
10
-6.0000000894092835
20
3.1111471939239999
30
0
11
-6.0000000894069547
21
-1.4653209181723758e-14
31
0
0
LINE
5
133
100
AcDbEntity
8
0
100
AcDbLine
10
-10.000000050064283
20
1.648168338651987
30
0
11
-8.0000001816683479
21
1.6481682322151137
31
0
0
LINE
5
134
100
AcDbEntity
8
0
100
AcDbLine
10
-10.000000177788543
20
-1.648168239704733
30
0
11
-8.0000001816683444
21
-1.6481682322151503
31
0
0
LINE
5
135
100
AcDbEntity
8
0
100
AcDbLine
10
-8.0000001816683444
20
-1.6481682322151503
30
0
11
-8.0000001176925579
21
-3.1111472364996606
31
0
0
LINE
5
136
100
AcDbEntity
8
0
100
AcDbLine
10
-8.0000001176925579
20
-3.1111472364996606
30
0
11
-6.0000000894062122
21
-3.1111471939234425
31
0
0
LINE
5
137
100
AcDbEntity
8
0
100
AcDbLine
10
-6.0000000894062122
20
-3.1111471939234425
30
0
11
-6.0000000894069538
21
-1.4656679105131571e-14
31
0
0
LINE
5
138
100
AcDbEntity
8
0
100
AcDbLine
10
8.0000000851494981
20
-10.000000042574761
30
0
11
1.6481682747899031
21
-10.000000177788532
31
0
0
LINE
5
139
100
AcDbEntity
8
0
100
AcDbLine
10
-1.6481682747898498
20
-10.000000177788554
30
0
11
-8.0000000851494608
21
-10.000000042574765
31
0
0
LINE
5
140
100
AcDbEntity
8
0
100
AcDbLine
10
10.000000059378337
20
8.000000101953038
30
0
11
10.000000247958877
21
1.6481682397047359
31
0
0
LINE
5
141
100
AcDbEntity
8
0
100
AcDbLine
10
10.000000177788557
20
-1.6481683386519865
30
0
11
10.000000042574763
21
-8.0000000851495017
31
0
0
LINE
5
142
100
AcDbEntity
8
0
100
AcDbLine
10
-10.000000042574722
20
-8.0000000851495141
30
0
11
-10.000000177788543
21
-1.648168239704733
31
0
0
LINE
5
143
100
AcDbEntity
8
0
100
AcDbLine
10
-10.000000050064283
20
1.648168338651987
30
0
11
-10.000000011988796
21
8.0000000545635412
31
0
0
LINE
5
144
100
AcDbEntity
8
0
100
AcDbLine
10
-8.0000000545635466
20
10.000000042574717
30
0
11
-1.6481682046195676
21
10.000000177788547
31
0
0
LINE
5
145
100
AcDbEntity
8
0
100
AcDbLine
10
1.6481684025141241
20
10.000000177788561
30
0
11
8.0000001019530949
21
10.000000042574722
31
0
0
ARC
5
146
100
AcDbEntity
8
0
100
AcDbCircle
10
-8.0000000425747224
20
-8.0000000425747668
30
0
40
2
210
0
220
0
230
1
100
AcDbArc
50
180.00000120741828
51
269.99999878032361
0
ARC
5
147
100
AcDbEntity
8
0
100
AcDbCircle
10
8.000000042574765
20
-8.0000000425747615
30
0
40
2
210
0
220
0
230
1
100
AcDbArc
50
270.00000121967622
51
359.99999879258172
0
ARC
5
148
100
AcDbEntity
8
0
100
AcDbCircle
10
8.0000000593783387
20
8.0000000425747224
30
0
40
1.9999999999999993
210
0
220
-0
230
1
100
AcDbArc
50
1.7075472925031877e-06
51
89.999998780323082
0
ARC
5
149
100
AcDbEntity
8
0
100
AcDbCircle
10
-8.0000000119887993
20
8.0000000425747206
30
0
40
1.9999999999999969
210
0
220
-0
230
1
100
AcDbArc
50
90.000001219676676
51
180
0
ENDSEC
0
SECTION
2
OBJECTS
0
DICTIONARY
5
C
100
AcDbDictionary
3
ACAD_GROUP
350
D
3
ACAD_MLINESTYLE
350
17
0
DICTIONARY
5
D
100
AcDbDictionary
0
DICTIONARY
5
1A
330
C
100
AcDbDictionary
0
DICTIONARY
5
17
100
AcDbDictionary
0
ENDSEC
0
EOF
