0
SECTION
2
HEADER
9
$INSUNITS
70
4
0
ENDSEC
0
SECTION
2
ENTITIES
0
LWPOLYLINE
90
36
70
1
10
-20
20
-20
10
-4
20
-20
10
-4
20
-17
10
-7
20
-17
10
-7
20
-12
10
7
20
-12
10
7
20
-17
10
4
20
-17
10
4
20
-20
10
20
20
-20
10
20
20
-4
10
17
20
-4
10
17
20
-7
10
12
20
-7
10
12
20
7
10
17
20
7
10
17
20
4
10
20
20
4
10
20
20
20
10
4
20
20
10
4
20
17
10
7
20
17
10
7
20
12
10
-7
20
12
10
-7
20
17
10
-4
20
17
10
-4
20
20
10
-20
20
20
10
-20
20
4
10
-17
20
4
10
-17
20
7
10
-12
20
7
10
-12
20
-7
10
-17
20
-7
10
-17
20
-4
10
-20
20
-4
0
CIRCLE
10
0
20
0
40
3
0
CIRCLE
10
-13
20
-13
40
2
0
CIRCLE
10
13
20
-13
40
2
0
CIRCLE
10
13
20
13
40
2
0
CIRCLE
10
-13
20
13
40
2
0
ENDSEC
0
EOF
